<svg id="Монтажная_область_2" data-name="Монтажная область 2" xmlns="http://www.w3.org/2000/svg" width="577.504" height="380.267" viewBox="0 0 577.504 380.267">
  <g id="Grupo_22" data-name="Grupo 22" transform="translate(75.241 251.168)">
    <g id="Grupo_19" data-name="Grupo 19" transform="translate(66.735 49.851)">
      <path id="Caminho_44" data-name="Caminho 44" d="M749.514,1053.042s-8.735-10.178-.535-16.661c0,0,5.987-3.625,10.867-3.331,0,0-6.917,11.6-4.679,12.752s6.774-13.481,6.774-13.481,13.624-1.32,18,.787c0,0-11.646,9.525-9.192,10.085s15.033-8.785,15.033-8.785,12.68,2.157,12,9.892-5.043,10.122-6.964,9.917-13.167-4.482-13.4-2.922,6.516,6.724,11.251,6.956c0,0-8.939,9.859-14.881,7s-6.443-7.357-10.15-9.049-6.866-1.681-5.337.039,8.231,3.4,10.349,7.149,4.02,6.273-2.126,5.345-16.139-5.421-16.576-10.573Z" transform="translate(-734.751 -1031.914)" fill="#5dc1ba"/>
      <path id="Caminho_45" data-name="Caminho 45" d="M782.276,1076.757s-34.435-1.325-42.041,8.522a24.861,24.861,0,0,1-6.858,9.626l-.807,2.2s5.967-6.292,8.1-6.673C740.669,1090.428,737.33,1078.228,782.276,1076.757Z" transform="translate(-725.466 -1064.151)" fill="#5dc1ba"/>
      <path id="Caminho_46" data-name="Caminho 46" d="M715.116,1139.443a21.629,21.629,0,0,0-7.906,15.232l1.342.12s2.361-10.085,6.628-14.049S715.116,1139.443,715.116,1139.443Z" transform="translate(-707.21 -1108.69)" fill="#5dc1ba"/>
    </g>
    <g id="Grupo_21" data-name="Grupo 21" transform="translate(0 22.186)">
      <path id="Caminho_47" data-name="Caminho 47" d="M519.956,969.141s13.9-7.78,7.41-18.341c0,0-5.185-6.483-10.743-8.15,0,0,2.964,15.747,0,16.117s-2.037-17.784-2.037-17.784-14.635-7.026-20.375-6.485c0,0,9.077,15.377,6.113,15s-13.153-15.929-13.153-15.929-15-2.779-17.414,6.113,1.482,13.338,3.706,13.892,16.487.372,16.117,2.225-10,4.816-15.377,3.149c0,0,5.928,14.635,13.71,13.893s10.189-5.556,15-5.928,8.334.927,5.928,2.224-10.559.426-14.45,3.732-7.04,5.345.185,6.827,20.193.56,22.787-5Z" transform="translate(-468.996 -933.162)" fill="#157770"/>
      <path id="Caminho_48" data-name="Caminho 48" d="M496.17,966.37s38.9,12.607,43.347,26.675a29.551,29.551,0,0,0,3.706,13.523v2.779s-4.076-9.447-6.3-10.744C536.926,998.6,545.633,986.375,496.17,966.37Z" transform="translate(-488.557 -957.067)" fill="#157770"/>
      <path id="Caminho_49" data-name="Caminho 49" d="M659.355,1105.418a25.671,25.671,0,0,1,2.58,20.2l-1.544-.415s1.5-12.214-1.642-18.358S659.355,1105.418,659.355,1105.418Z" transform="translate(-604.689 -1055.917)" fill="#157770"/>
    </g>
    <g id="Grupo_20" data-name="Grupo 20" transform="translate(61.025)">
      <path id="Caminho_50" data-name="Caminho 50" d="M698.869,901.4s-18.316-10.256-9.769-24.177c0,0,6.838-8.547,14.164-10.743,0,0-3.922,20.756,0,21.243s2.684-23.443,2.684-23.443,19.308-9.278,26.872-8.547c0,0-11.965,20.268-8.06,19.781S742.1,854.506,742.1,854.506s19.773-3.653,22.938,8.068-1.961,17.582-4.886,18.316-21.731.487-21.243,2.93,13.186,6.348,20.268,4.149c0,0-7.816,19.294-18.072,18.316s-13.43-7.326-19.778-7.813-10.99,1.219-7.813,2.93,13.918.56,19.05,4.919,9.278,7.046-.247,9-26.614.734-30.034-6.592Z" transform="translate(-686.828 -853.967)" fill="#5dc1ba"/>
      <path id="Caminho_51" data-name="Caminho 51" d="M774.375,897.77s-51.267,16.6-57.15,35.164a38.956,38.956,0,0,1-4.886,17.826v3.664s5.373-12.452,8.3-14.161C720.649,940.26,709.163,924.143,774.375,897.77Z" transform="translate(-705.193 -885.499)" fill="#5dc1ba"/>
      <path id="Caminho_52" data-name="Caminho 52" d="M700.066,1081.011s-7.909,12.01-3.4,26.614l2.034-.56s-1.961-16.1,2.163-24.2S700.066,1081.011,700.066,1081.011Z" transform="translate(-692.911 -1015.75)" fill="#5dc1ba"/>
    </g>
    <g id="Grupo_18" data-name="Grupo 18" transform="translate(35.392 87.714)">
      <path id="Caminho_53" data-name="Caminho 53" d="M635.415,1202.946a35.876,35.876,0,0,0,35.875-35.876H599.54a35.878,35.878,0,0,0,35.873,35.876Z" transform="translate(-598.361 -1167.07)" fill="#d4e4f8"/>
      <path id="Caminho_54" data-name="Caminho 54" d="M670.513,1290.266H597.77a4.429,4.429,0,0,1,4.426-4.426h63.89A4.426,4.426,0,0,1,670.513,1290.266Z" transform="translate(-597.086 -1252.567)" fill="#d4e4f8"/>
      <rect id="Retângulo_11" data-name="Retângulo 11" width="73.746" height="1.101" fill="#9fc1f4"/>
    </g>
  </g>
  <g id="Grupo_1319" data-name="Grupo 1319" transform="translate(390.73 30.512)">
    <path id="Caminho_71" data-name="Caminho 71" d="M1708.594,823a52.581,52.581,0,0,1-5.376,8.124c-4.174,5.231-10.615,11.273-18.7,12.464a20.163,20.163,0,0,1-11.11-1.8h0c-9.805-4.359-17.2-14.383-17.2-14.383a8.067,8.067,0,0,1,1.1-7.92s19.826,4.457,21.714,3.513,12.887-32.673,15.523-36.66,11.562-6.057,11.562-6.057Z" transform="translate(-1636.633 -719.122)" fill="#f9ddbf"/>
    <g id="Grupo_1318" data-name="Grupo 1318" transform="translate(0 0)">
      <path id="Caminho_69" data-name="Caminho 69" d="M1804.713,563.891c-6.53-3.387-11.766-1.258-11.766-1.258-19.983-2.348-25.812,20.958-25.544,28.976s1.188,16.632-7.738,27.048c-25.774,30.093,28.211,31.418,28.211,31.418.457-24.039,29.275-15.268,28.014-12.833C1852.837,646.108,1819.564,571.6,1804.713,563.891Z" transform="translate(-1706.492 -561.972)" fill="#292929"/>
      <path id="Caminho_70" data-name="Caminho 70" d="M1608.908,910.268s-3.513-5.351-6.345-5.454-8.077-1.575-7.657-.527,3.67,1.154,3.986,1.785-4.827,1.574-6.295,1.681-4.931,0-4.824.734,6.239,3.776,10.567,3.362,9.677,1.26,9.677,1.26Z" transform="translate(-1587.771 -808.119)" fill="#ffb27d"/>
      <path id="Caminho_72" data-name="Caminho 72" d="M1748.857,934.794c-4.174,5.23-10.615,11.273-18.7,12.464a20.163,20.163,0,0,1-11.111-1.8c.384.051,10.192,1.261,14.1-5.732,3.986-7.132,8.3-18.462,14.22-14.685C1749.925,926.67,1749.813,930.719,1748.857,934.794Z" transform="translate(-1682.273 -822.787)" fill="#f2ccaa"/>
      <path id="Caminho_73" data-name="Caminho 73" d="M2052.339,1689.964s6.052,5.522,4.87,9.444-6.64,6.539-7.377,11.332-3.689,7.41-6.345,7.41h-12.663s-1.961-3.362,2.768-4.39,6.5-6.651,6.208-11.881a92.6,92.6,0,0,1,.439-12.2l10.035-2.325Z" transform="translate(-1906.414 -1372.08)" fill="#292929"/>
      <path id="Caminho_74" data-name="Caminho 74" d="M1837.319,1705.05s2.177,23.387-.479,24.695l-33.99-.07s0-3.922,5.46-4.793,15.049-4.068,16.674-11.186S1837.319,1705.05,1837.319,1705.05Z" transform="translate(-1742.597 -1384.822)" fill="#292929"/>
      <path id="Caminho_75" data-name="Caminho 75" d="M1865.388,815.354c-7-15.688-11.273-20.187-10.458-25.056.608-3.625-1.852-67.56-1.852-67.56-.84-.258-2.493-.487-3.4-.692a8.533,8.533,0,0,1-6.239-5.418,43.5,43.5,0,0,1-2.116-14.427l-.9.176-15.063,2.984s.342,4.743.353,9.208v.109a8.665,8.665,0,0,1-6.253,8.379c-1.9.56-3.558,1.02-3.558,1.02s-5.533,15.792-6.589,32.018,10.06,23.272-.085,55.693C1798.9,844.9,1869.251,824.021,1865.388,815.354Z" transform="translate(-1746.444 -662.916)" fill="#ffb27d"/>
      <path id="Caminho_76" data-name="Caminho 76" d="M1869.5,705.813s.342,4.743.354,9.208c8.429-.238,12.886-7.928,14.71-12.192Z" transform="translate(-1790.574 -663.369)" fill="#e8945b"/>
      <path id="Caminho_77" data-name="Caminho 77" d="M1842.38,642.1s19.946.328,19.96-12.1,2.6-20.748-10.138-21.484-15.212,4-16.226,8.149S1837.192,641.689,1842.38,642.1Z" transform="translate(-1766.271 -595.421)" fill="#ffb27d"/>
      <path id="Caminho_78" data-name="Caminho 78" d="M1862.08,601.142s5.463,14.568,13.842,16.73,12.018-.09,12.018-.09a23.645,23.645,0,0,1-7.763-14.007C1880.177,603.767,1866.2,594.2,1862.08,601.142Z" transform="translate(-1785.233 -588.352)" fill="#292929"/>
      <path id="Caminho_79" data-name="Caminho 79" d="M1840.969,605.743s-4.051,1.513-5.718,4.468a20.073,20.073,0,0,0-2.695,11.4s-4.115-9.906.51-15.512C1837.968,600.163,1840.969,605.743,1840.969,605.743Z" transform="translate(-1762.766 -591.77)" fill="#292929"/>
      <path id="Caminho_80" data-name="Caminho 80" d="M1856.411,699.279a5.008,5.008,0,0,1-4.129,1.681,3.663,3.663,0,0,1-3.082-2.028S1853.282,697.948,1856.411,699.279Z" transform="translate(-1775.962 -660.311)" fill="#fff"/>
      <path id="Caminho_81" data-name="Caminho 81" d="M1856.772,803.784s-.076,9.46-.58,18.03c-.336,5.678-.86,10.97-1.681,12.85-2.045,4.72-4.351,5.488-4.351,5.488l-17.848,4.376-6.275,1.535-19.787-5.911s-9.013-25.154-5.393-39.315A108.9,108.9,0,0,1,1810,776.842s16.148,15.809,37.173-1.342Z" transform="translate(-1740.545 -715.681)" fill="#f9ddbf"/>
      <path id="Caminho_82" data-name="Caminho 82" d="M1919.309,926.056c-.336,5.679-.86,10.971-1.681,12.85-2.045,4.721-4.351,5.488-4.351,5.488l-17.848,4.376-7.749-2.28s25.872-3.922,23.006-26.18Z" transform="translate(-1803.662 -819.923)" fill="#f2ccaa"/>
      <path id="Caminho_83" data-name="Caminho 83" d="M1799.99,1019.91s-9.806,30.5-10.427,40.887,18.731,147.525,19.509,152.31c.734,4.51,6.337,7.387,6.337,7.387a8.467,8.467,0,0,0,6.25.479c5.1-1.44,6.723-3.163,6.723-3.163s7.626-97.807,2.908-132.747a552.216,552.216,0,0,1-4.763-65.153Z" transform="translate(-1733.021 -891.621)" fill="#157770"/>
      <path id="Caminho_84" data-name="Caminho 84" d="M1876.608,1016.67s14.949,20.056,16.341,33.618,2.187,61.181,5.157,74.4,13.876,38.66,13.876,79.878a8.238,8.238,0,0,1-4.634,3.623,38.611,38.611,0,0,1-4.077,1.12,6.412,6.412,0,0,1-7.169-3.4c-7.373-14.847-30.864-62.736-32.068-72.675-.841-7.035-8.27-53.595-24.449-80.915-3.886-6.558,2.384-32.643,2.384-32.643Z" transform="translate(-1768.127 -889.288)" fill="#18a399"/>
      <path id="Caminho_85" data-name="Caminho 85" d="M1819.8,1003.11s3.922,3.109,11.749,3.269c9.334.187,32.466-2.381,32.466-2.381a19.135,19.135,0,0,1,.986,5.9s-28.25,7.127-44.619,1.042C1820.387,1010.943,1818.278,1006.971,1819.8,1003.11Z" transform="translate(-1754.402 -879.527)" fill="#292929"/>
      <path id="Caminho_86" data-name="Caminho 86" d="M1844.231,1018.713a4.859,4.859,0,1,1,4.259-4.821A4.574,4.574,0,0,1,1844.231,1018.713Zm0-8.231a3.465,3.465,0,1,0,2.846,3.409A3.171,3.171,0,0,0,1844.231,1010.482Z" transform="translate(-1769.318 -883.817)" fill="#fff"/>
      <rect id="Retângulo_21" data-name="Retângulo 21" width="45.479" height="25.49" transform="translate(95.911 160.228) rotate(-12.17)" fill="#292929"/>
      <path id="Caminho_87" data-name="Caminho 87" d="M1930.09,1109.374s12.43,10.413,26.241,6.791,18.209-16.375,18.209-16.375Z" transform="translate(-1834.191 -949.123)" fill="#505050"/>
      <path id="Caminho_88" data-name="Caminho 88" d="M1945.941,1124.3a2.471,2.471,0,1,1,2.471-2.471A2.471,2.471,0,0,1,1945.941,1124.3Zm0-4.121a1.65,1.65,0,1,0,1.65,1.65A1.65,1.65,0,0,0,1945.941,1120.181Z" transform="translate(-1843.823 -963.21)" fill="#505050"/>
      <path id="Caminho_89" data-name="Caminho 89" d="M2081.47,1131.029a20.142,20.142,0,0,0,.7,5.351c.687,1.74,2.74,4.065,3.424,4.065s-.628-3.642-.28-3.555,1.995,6.04,3.191,6.183,2.289-6.693,1.658-9.376-3.339-5.905-3.339-5.905Z" transform="translate(-1943.162 -969.279)" fill="#ffb27d"/>
      <path id="Caminho_90" data-name="Caminho 90" d="M1944.3,775.51a24.291,24.291,0,0,1,16.974,13.195c4.588,9.043,7.737,37.483,10.976,46.44,3.1,8.569,7.373,25.137,9.76,38.411a2.2,2.2,0,0,1-1.356,2.432L1976.6,877.6a1.919,1.919,0,0,1-2.356-.8c-3.606-6.051-17.82-30.3-22.756-44.322a73.294,73.294,0,0,0-16.568-26.581Z" transform="translate(-1837.668 -715.688)" fill="#f9ddbf"/>
      <path id="Caminho_91" data-name="Caminho 91" d="M1943.832,872.388c-.026-.406-2.591-40.963-2.1-63.767a95.043,95.043,0,0,1,3.614-25.376c1.644-5.421,4.1-7.64,4.163-7.746l.84.249c-.061.1-6.869,10.343-7.356,32.9-.491,22.751,2.073,63.257,2.1,63.663Z" transform="translate(-1842.525 -715.681)" fill="#505050"/>
    </g>
  </g>
  <g id="Grupo_1320" data-name="Grupo 1320" transform="translate(226.493 0)">
    <path id="Caminho_92" data-name="Caminho 92" d="M1193.55,1759.788h20.961a50.409,50.409,0,0,0-1.681-7.525,21.487,21.487,0,0,0-1.188-3.02c-2.039-4.068-14.988-1.479-14.988-1.479s-1.2,1.031-2.143,4.967a41.858,41.858,0,0,0-.961,7.057Z" transform="translate(-1157.77 -1382.054)" fill="#292929"/>
    <path id="Caminho_93" data-name="Caminho 93" d="M1324.885,649.83s16.705,2.933,20.482,12.792,25.109,169.118,25.109,169.118-10.564,8.357-33.24,5.365S1324.885,649.83,1324.885,649.83Z" transform="translate(-1250.623 -592.286)" fill="#5dc1ba"/>
    <path id="Caminho_94" data-name="Caminho 94" d="M1419.654,1731.25c.059,2.852.418,5.55,1.451,6.614h41.462c-.526-1.5-2.02-3.756-6.275-4.446-4.835-.784-12.377-3.112-16.778-7.765a12.5,12.5,0,0,1-3.25-5.883c-1.961-8.684-16.128,2.661-16.128,2.661A70.564,70.564,0,0,0,1419.654,1731.25Z" transform="translate(-1320.53 -1360.13)" fill="#292929"/>
    <path id="Caminho_95" data-name="Caminho 95" d="M1313.1,1251.944c-4.634,1.479-13.489,5.992-19.118,3.869-3.642-1.37-23.955-60.156-25.275-85.87a66.181,66.181,0,0,0-1.04-7.659c-1.2-6.634-3.311-15.752-5.734-25.816-6.5-26.961-15.3-60.691-15.108-71.47.295-16.733,49.866-3.508,49.866-3.508a179.163,179.163,0,0,1,4.09,33.6c1.345,39.444,5.042,106.074,15.114,152.343A3.976,3.976,0,0,1,1313.1,1251.944Z" transform="translate(-1196.116 -885.049)" fill="#af4138"/>
    <path id="Caminho_96" data-name="Caminho 96" d="M1217.726,1071.516l-26.2,189.939s-11.509,2.776-20.451.56c0,0-7.67-101.012-7.031-125.433s-5.508-65.344,1.4-69.857S1217.726,1071.516,1217.726,1071.516Z" transform="translate(-1135.151 -891.5)" fill="#c65447"/>
    <path id="Caminho_97" data-name="Caminho 97" d="M1162.1,651.883s27.539-17.806,47.291-8.685c3.149,1.451,6.724,5.5,9.309,8.332,7.138,7.869,21.089,132.845,21.089,132.845s-39.6,13.413-77.69-4.552Z" transform="translate(-1135.13 -585.64)" fill="#fff"/>
    <path id="Caminho_98" data-name="Caminho 98" d="M1336.5,648.22s27.88,11.424,31.656,20.2,16.049,62.688,16.049,69.011-21.37,1.4-24.81-8.785c-2.857-8.466-12.492-34.475-17.573-50.925Z" transform="translate(-1260.673 -591.127)" fill="#5dc1ba"/>
    <path id="Caminho_99" data-name="Caminho 99" d="M1260.411,615.252a31.361,31.361,0,0,1-21.571-4.393,62.044,62.044,0,0,0,4.6-16.248c.026-.193.042-.378.062-.56a16.473,16.473,0,0,0,.075-3.721h15.733s4.3,1.961,4.3,3.328q0,1.087.02,2.084c.03,1.81.1,3.39.2,4.746a42.992,42.992,0,0,0,.8,6.5S1266.555,614.05,1260.411,615.252Z" transform="translate(-1190.372 -549.454)" fill="#ffb27d"/>
    <path id="Caminho_100" data-name="Caminho 100" d="M1274.738,607.987c-11.923,2.306-18.843-4.2-20.392-5.883-.221-.241-.336-.381-.336-.381.126-.064.261-.12.4-.176,4.437-1.8,14.506-.367,20.131,1.681C1274.581,605.051,1274.654,606.631,1274.738,607.987Z" transform="translate(-1201.292 -556.939)" fill="#e2915a"/>
    <path id="Caminho_101" data-name="Caminho 101" d="M1233.636,506.949c2.129,11.464,16.921,11.088,23.314,10.365,1.8-.2,2.933-.431,2.933-.431,2.028-.541,3.16-3.737,3.684-7.922,1.045-8.281-.28-20.451-1.681-23.549-2.107-4.681-6.074-9.741-20.969-6.09S1230.9,492.261,1233.636,506.949Z" transform="translate(-1184.464 -468.645)" fill="#ffb27d"/>
    <path id="Caminho_102" data-name="Caminho 102" d="M1237.09,454.795c-2.037-2.818-6.354-6.264-10.276-8.385-8.421-4.558-19.2.143-19.249.163-12.167,5.351-15.344,14.66-8.895,29.163,6.822,15.335,13.318,13.609,13.318,13.609s-1.378-.86-1.255-5.639c0-.28.019-.5.031-.692a3.215,3.215,0,0,0-1.014-2.616c-1.513-1.347-2.241-5.429-.983-6.564,1.527-1.37,3.673.294,4.359,1.574a1.866,1.866,0,0,0,2.67.588c3.788-2.392,1.328-7.183,4.944-10.11s10.965-.471,16.392-2.8C1244.24,460.431,1238.626,456.91,1237.09,454.795Z" transform="translate(-1159.106 -444.421)" fill="#292929"/>
    <path id="Caminho_103" data-name="Caminho 103" d="M1194.606,842.388q-3.6.924-7.13,1.513c-2.087.356-4.163.622-6.245.8-11.786,1.025-23.625-.633-37.461-4.6q-4.673-1.342-9.677-3.029c-.356-.12.911-36.7,2.37-74.452.148-3.894.3-7.8.454-11.69q.1-2.468.193-4.914c1.325-33.38,2.639-63.523,2.914-65.148.633-3.673,1.224-6.8,1.871-9.525,1.886-7.908,4.225-12.245,9.329-15.968.5-.378,4.581-2.435,8.181-4.225,2.983-1.482,5.633-2.776,5.633-2.776h0c1.185.583,2.611,3.3,4.1,7.119,2.743,7.034,5.7,17.811,7.758,25.857a.144.144,0,0,1,0,.042h0c1.325,5.194,2.275,9.245,2.546,10.4.459,1.961,1.064,5.757,1.779,10.9.969,7,2.129,16.506,3.362,27.292q.191,1.658.375,3.362c.146,1.291.294,2.6.44,3.922.045.426.092.84.137,1.275.473,4.272.947,8.685,1.421,13.167.392,3.7,6.009,6.382,6.4,10.15.224,2.21.692,22.622,1.292,29.135C1195.1,795.645,1194.777,840.2,1194.606,842.388Z" transform="translate(-1114.927 -591.235)" fill="#5dc1ba"/>
    <path id="Caminho_104" data-name="Caminho 104" d="M1165.09,812.39c-.017.076-.955,33.755,24.373,37.845s8.506,5.188,8.506,5.188-47.661-2.028-48.449-3.286S1165.09,812.39,1165.09,812.39Z" transform="translate(-1126.054 -709.305)" fill="#157770"/>
    <path id="Caminho_105" data-name="Caminho 105" d="M1166.609,981.526s-.473.336-1.4.924a.5.5,0,0,0-.048.028,118.919,118.919,0,0,1-32.034,13.7q-2.631.714-5.432,1.339c.148-3.894.3-7.8.454-11.69a48.149,48.149,0,0,1-6.278-.868c.064-.513.135-1.025.2-1.538,2.123-.871,4.233-1.712,6.27-2.521,1.658-.65,3.263-1.266,4.785-1.838,6.861-2.606,11.945-4.373,11.945-4.373l20.308,6.444Z" transform="translate(-1106.171 -826.138)" fill="#157770"/>
    <path id="Caminho_106" data-name="Caminho 106" d="M1131.645,746.045s-2.608.65-6.763,1.487a.129.129,0,0,0-.045,0c-7.659,1.541-20.538,3.7-32.037,3.583-1.7-.02-3.362-.087-4.978-.213a48.12,48.12,0,0,1-6.278-.869c-4.2-.885-7.726-2.387-10.029-4.734-17.111-17.428,9.337-79.976,14.9-86.061,6.494-7.107,18.341-9.6,24.882-10.455l.79-.1c2.3-.28,3.776-.331,3.86-.333h0s-.513,1.647-1.373,4.446c-.333,1.084-.72,2.339-1.146,3.74-4.017,13.167-11.766,39.024-15.19,53.609-1.252,5.323-1.925,9.164-1.619,10.307,1.336,4.981,15.158,7.544,23.919,8.684,3.642.473,6.424.695,7.046.742a.7.7,0,0,1,.129,0l.507,2.076,1.21,4.981,1.193,4.894Z" transform="translate(-1065.83 -591.22)" fill="#5dc1ba"/>
    <path id="Caminho_107" data-name="Caminho 107" d="M1320.111,909.567l-58.76-2.476,11.92-73.23,58.76,2.477Z" transform="translate(-1206.576 -724.76)" fill="#292929"/>
    <path id="Caminho_108" data-name="Caminho 108" d="M1278.335,939.122s11.438-.8,12.013,1.869c1.336,6.214-9.836,11.318-13.447,10.968S1275.7,938.708,1278.335,939.122Z" transform="translate(-1216.453 -800.453)" fill="#ffb27d"/>
    <path id="Caminho_109" data-name="Caminho 109" d="M1469.812,891.022s-10.945-3.423-12.119-.961c-2.74,5.737,6.948,13.285,10.55,13.783S1472.468,891.226,1469.812,891.022Z" transform="translate(-1347.567 -764.576)" fill="#ffb27d"/>
    <path id="Caminho_110" data-name="Caminho 110" d="M1230.435,635.25s-4.81,2.294-7.225,5.757c0,0,17.988,31.231,17.91,30.937S1235.024,639.251,1230.435,635.25Z" transform="translate(-1179.12 -581.79)" fill="#76eae2"/>
    <path id="Caminho_111" data-name="Caminho 111" d="M1328.93,636.82c1.583.6,4.623,3.712,5.306,5.432l2.138,27.267s-4.564-20.011-6.889-29.054A15.177,15.177,0,0,1,1328.93,636.82Z" transform="translate(-1255.223 -582.92)" fill="#76eae2"/>
    <path id="Caminho_112" data-name="Caminho 112" d="M1373.43,832.126s.465-2.034,3.141-1.8,17.7.975,17.7.975,2.9-.048,2.628,1.81Z" transform="translate(-1287.257 -722.206)" fill="#c65447"/>
    <path id="Caminho_113" data-name="Caminho 113" d="M1311.9,586.227a6.275,6.275,0,0,0,5.1,1.227c1.866-.325,2.911-2.754,2.911-2.754A14.1,14.1,0,0,0,1311.9,586.227Z" transform="translate(-1242.964 -545.337)" fill="#fff"/>
  </g>
  <rect id="Retângulo_22" data-name="Retângulo 22" width="577.504" height="2.533" rx="1.266" transform="translate(0 377.734)" fill="#2e3552"/>
</svg>
